# xmcd
#
# Track frame offsets: 
#        150
#        30621
#        46883
#        73054
#        97214
#        120179
#        123754
#        148161
#        172895
#        188762
#        213388
#        241249
#
# Disc length: 3563 seconds
#
# Revision: 1
# Processed by: cddbd v1.5.2PL0 Copyright (c) Steve Scherf et al.
# Submitted via: ExactAudioCopy v0.95b4
#
DISCID=a30de90c
DTITLE=PowerWorld - Cybersteria
DYEAR=2013
DGENRE=Melodic Power Metal
TTITLE0=Children Of The Universe
TTITLE1=Slave To The Powerworld
TTITLE2=Back On Me
TTITLE3=World Knows Your Secrets - Virtuality
TTITLE4=You Gotta Hold On
TTITLE5=Am I Digital (Instrumental)
TTITLE6=Coast Of Tears
TTITLE7=Black Ash
TTITLE8=Like A Shadow
TTITLE9=Cybersteria
TTITLE10=You Will Find A Way
TTITLE11=Not Bound To The Evil
EXTD=
EXTT0=
EXTT1=
EXTT2=
EXTT3=
EXTT4=
EXTT5=
EXTT6=
EXTT7=
EXTT8=
EXTT9=
EXTT10=
EXTT11=
PLAYORDER=
